<mxfile host="65bd71144e">
    <diagram id="ONW7mOi5Zd2H1ySlcCGi" name="Page-1">
        <mxGraphModel dx="239" dy="548" grid="1" gridSize="10" guides="1" tooltips="1" connect="1" arrows="1" fold="1" page="1" pageScale="1" pageWidth="827" pageHeight="1169" math="0" shadow="0">
            <root>
                <mxCell id="0"/>
                <mxCell id="1" parent="0"/>
                <mxCell id="59" value="Authentication" style="swimlane;childLayout=stackLayout;horizontal=1;startSize=30;horizontalStack=0;rounded=1;fontSize=14;fontStyle=0;strokeWidth=2;resizeParent=0;resizeLast=1;shadow=0;dashed=0;align=center;fillColor=#60a917;fontColor=#ffffff;strokeColor=#2D7600;" parent="1" vertex="1">
                    <mxGeometry x="850" y="330" width="230" height="100" as="geometry">
                        <mxRectangle x="550" width="170" height="30" as="alternateBounds"/>
                    </mxGeometry>
                </mxCell>
                <mxCell id="60" value="1. Google &#10;2. Facebook&#10;3. Twitter" style="align=left;strokeColor=none;fillColor=none;spacingLeft=4;fontSize=12;verticalAlign=top;resizable=0;rotatable=0;part=1;" parent="59" vertex="1">
                    <mxGeometry y="30" width="230" height="70" as="geometry"/>
                </mxCell>
                <mxCell id="117" value="Notification" style="swimlane;childLayout=stackLayout;horizontal=1;startSize=30;horizontalStack=0;rounded=1;fontSize=14;fontStyle=0;strokeWidth=2;resizeParent=0;resizeLast=1;shadow=0;dashed=0;align=center;fillColor=#60a917;fontColor=#ffffff;strokeColor=#2D7600;" vertex="1" parent="1">
                    <mxGeometry x="1521" y="330" width="230" height="100" as="geometry">
                        <mxRectangle x="550" width="170" height="30" as="alternateBounds"/>
                    </mxGeometry>
                </mxCell>
                <mxCell id="118" value="1. Push notification&#10;2. " style="align=left;strokeColor=none;fillColor=none;spacingLeft=4;fontSize=12;verticalAlign=top;resizable=0;rotatable=0;part=1;" vertex="1" parent="117">
                    <mxGeometry y="30" width="230" height="70" as="geometry"/>
                </mxCell>
                <mxCell id="120" value="&lt;b&gt;&lt;font color=&quot;#ffffff&quot; style=&quot;font-size: 18px;&quot;&gt;FIREBASE&lt;/font&gt;&lt;/b&gt;" style="rounded=1;whiteSpace=wrap;html=1;fillColor=#f0a30a;fontColor=#000000;strokeColor=#BD7000;" vertex="1" parent="1">
                    <mxGeometry x="1241" y="330" width="170" height="60" as="geometry"/>
                </mxCell>
                <mxCell id="121" style="edgeStyle=none;html=1;exitX=1;exitY=0.5;exitDx=0;exitDy=0;entryX=0;entryY=0.5;entryDx=0;entryDy=0;" edge="1" parent="1" source="60" target="120">
                    <mxGeometry relative="1" as="geometry"/>
                </mxCell>
                <mxCell id="122" style="edgeStyle=none;html=1;exitX=0;exitY=0.75;exitDx=0;exitDy=0;entryX=1;entryY=0.5;entryDx=0;entryDy=0;" edge="1" parent="1" source="118" target="120">
                    <mxGeometry relative="1" as="geometry"/>
                </mxCell>
                <mxCell id="127" style="edgeStyle=none;html=1;exitX=0.5;exitY=1;exitDx=0;exitDy=0;entryX=0.5;entryY=0;entryDx=0;entryDy=0;fontSize=18;fontColor=#FFFFFF;" edge="1" parent="1" source="123" target="126">
                    <mxGeometry relative="1" as="geometry"/>
                </mxCell>
                <mxCell id="123" value="&lt;b&gt;Application(Web/mobile/Admin)&lt;/b&gt;" style="rounded=1;whiteSpace=wrap;html=1;fontSize=18;" vertex="1" parent="1">
                    <mxGeometry x="1151" y="520" width="300" height="60" as="geometry"/>
                </mxCell>
                <mxCell id="124" style="edgeStyle=none;html=1;exitX=0.75;exitY=1;exitDx=0;exitDy=0;entryX=0;entryY=0.5;entryDx=0;entryDy=0;fontSize=18;startArrow=none;" edge="1" parent="1" source="138" target="123">
                    <mxGeometry relative="1" as="geometry"/>
                </mxCell>
                <mxCell id="125" style="edgeStyle=none;html=1;exitX=0.25;exitY=1;exitDx=0;exitDy=0;entryX=1;entryY=0.5;entryDx=0;entryDy=0;fontSize=18;" edge="1" parent="1" source="118" target="123">
                    <mxGeometry relative="1" as="geometry"/>
                </mxCell>
                <mxCell id="130" style="edgeStyle=none;html=1;entryX=1;entryY=0.5;entryDx=0;entryDy=0;fontSize=18;fontColor=#FFFFFF;" edge="1" parent="1" source="126" target="128">
                    <mxGeometry relative="1" as="geometry"/>
                </mxCell>
                <mxCell id="154" style="edgeStyle=none;html=1;exitX=0.5;exitY=1;exitDx=0;exitDy=0;entryX=0.5;entryY=0;entryDx=0;entryDy=0;fontSize=18;fontColor=#FFFFFF;" edge="1" parent="1" source="126" target="153">
                    <mxGeometry relative="1" as="geometry"/>
                </mxCell>
                <mxCell id="126" value="API" style="shape=hexagon;perimeter=hexagonPerimeter2;whiteSpace=wrap;html=1;fixedSize=1;fontSize=18;fontColor=#FFFFFF;" vertex="1" parent="1">
                    <mxGeometry x="1241" y="650" width="120" height="90" as="geometry"/>
                </mxCell>
                <mxCell id="128" value="MongoDb" style="shape=datastore;whiteSpace=wrap;html=1;fontSize=18;fontColor=#FFFFFF;" vertex="1" parent="1">
                    <mxGeometry x="900" y="600" width="140" height="150" as="geometry"/>
                </mxCell>
                <mxCell id="129" value="" style="image;html=1;image=img/lib/clip_art/computers/Server_128x128.png;fontSize=18;fontColor=#FFFFFF;" vertex="1" parent="1">
                    <mxGeometry x="1320" y="650" width="80" height="80" as="geometry"/>
                </mxCell>
                <mxCell id="135" value="" style="image;html=1;image=img/lib/clip_art/computers/Database_128x128.png;fontSize=18;fontColor=#FFFFFF;" vertex="1" parent="1">
                    <mxGeometry x="850" y="640" width="80" height="80" as="geometry"/>
                </mxCell>
                <mxCell id="150" style="edgeStyle=none;html=1;fontSize=18;fontColor=#FFFFFF;" edge="1" parent="1" source="139" target="123">
                    <mxGeometry relative="1" as="geometry"/>
                </mxCell>
                <mxCell id="151" style="edgeStyle=none;html=1;exitX=0.25;exitY=1;exitDx=0;exitDy=0;entryX=0.5;entryY=0;entryDx=0;entryDy=0;fontSize=18;fontColor=#FFFFFF;" edge="1" parent="1" source="139" target="148">
                    <mxGeometry relative="1" as="geometry"/>
                </mxCell>
                <mxCell id="139" value="" style="image;html=1;image=img/lib/clip_art/computers/MacBook_128x128.png;fontSize=18;fontColor=#FFFFFF;" vertex="1" parent="1">
                    <mxGeometry x="1441" y="500" width="80" height="80" as="geometry"/>
                </mxCell>
                <mxCell id="147" style="edgeStyle=none;html=1;exitX=1;exitY=0.5;exitDx=0;exitDy=0;entryX=0;entryY=0.75;entryDx=0;entryDy=0;fontSize=18;fontColor=#FFFFFF;" edge="1" parent="1" source="144" target="126">
                    <mxGeometry relative="1" as="geometry"/>
                </mxCell>
                <mxCell id="144" value="Neo4j" style="shape=datastore;whiteSpace=wrap;html=1;fontSize=18;fontColor=#FFFFFF;" vertex="1" parent="1">
                    <mxGeometry x="900" y="800" width="140" height="150" as="geometry"/>
                </mxCell>
                <mxCell id="145" value="" style="image;html=1;image=img/lib/clip_art/computers/Database_128x128.png;fontSize=18;fontColor=#FFFFFF;" vertex="1" parent="1">
                    <mxGeometry x="860" y="850" width="80" height="80" as="geometry"/>
                </mxCell>
                <mxCell id="148" value="Firebase Storage" style="shape=datastore;whiteSpace=wrap;html=1;fontSize=18;fontColor=#FFFFFF;" vertex="1" parent="1">
                    <mxGeometry x="1480" y="720" width="140" height="150" as="geometry"/>
                </mxCell>
                <mxCell id="152" value="" style="edgeStyle=none;html=1;exitX=0.75;exitY=1;exitDx=0;exitDy=0;entryX=0;entryY=0.5;entryDx=0;entryDy=0;fontSize=18;endArrow=none;" edge="1" parent="1" source="60" target="138">
                    <mxGeometry relative="1" as="geometry">
                        <mxPoint x="1022.5" y="430" as="sourcePoint"/>
                        <mxPoint x="1161" y="550" as="targetPoint"/>
                    </mxGeometry>
                </mxCell>
                <mxCell id="138" value="" style="image;html=1;image=img/lib/clip_art/telecommunication/iPhone_128x128.png;fontSize=18;fontColor=#FFFFFF;" vertex="1" parent="1">
                    <mxGeometry x="1100" y="490" width="80" height="80" as="geometry"/>
                </mxCell>
                <mxCell id="153" value="&lt;b&gt;&lt;font color=&quot;#ffffff&quot; style=&quot;font-size: 18px;&quot;&gt;FIREBASE&lt;/font&gt;&lt;/b&gt;" style="rounded=1;whiteSpace=wrap;html=1;fillColor=#f0a30a;fontColor=#000000;strokeColor=#BD7000;" vertex="1" parent="1">
                    <mxGeometry x="1226" y="900" width="170" height="60" as="geometry"/>
                </mxCell>
            </root>
        </mxGraphModel>
    </diagram>
</mxfile>